# Exported from Wings 3D 1.5.3
mtllib IceWBigSpike.mtl
o cone1_copy8
#17 vertices, 17 faces
v -0.12249622 -2.0388003e-2 -0.78491387
v -0.13505610 -2.0388003e-2 -0.72177110
v -0.17082360 -2.0388003e-2 -0.66824125
v -0.22435346 -2.0388003e-2 -0.63247374
v -0.28749622 -2.0388003e-2 -0.61991387
v -0.35063899 -2.0388003e-2 -0.63247374
v -0.40416884 -2.0388003e-2 -0.66824125
v -0.43993635 -2.0388003e-2 -0.72177110
v -0.45249622 -2.0388003e-2 -0.78491387
v -0.43993635 -2.0388003e-2 -0.84805663
v -0.40416884 -2.0388003e-2 -0.90158648
v -0.35063899 -2.0388003e-2 -0.93735399
v -0.28749622 -2.0388003e-2 -0.94991387
v -0.22435346 -2.0388003e-2 -0.93735399
v -0.17082360 -2.0388003e-2 -0.90158648
v -0.13505610 -2.0388003e-2 -0.84805663
v -0.28749622 1.62961200 -0.78491387
vn 0.92452277 -0.38112681 1.4984685e-15
vn 0.85414766 -0.38112681 0.35379955
vn 0.65373632 -0.38112681 0.65373632
vn 0.35379955 -0.38112681 0.85414766
vn 0.0000000e+0 -0.38112681 0.92452277
vn -0.35379955 -0.38112681 0.85414766
vn -0.65373632 -0.38112681 0.65373632
vn -0.85414766 -0.38112681 0.35379955
vn -0.92452277 -0.38112681 1.4984685e-15
vn -0.85414766 -0.38112681 -0.35379955
vn -0.65373632 -0.38112681 -0.65373632
vn -0.35379955 -0.38112681 -0.85414766
vn -6.1778963e-16 -0.38112681 -0.92452277
vn 0.35379955 -0.38112681 -0.85414766
vn 0.65373632 -0.38112681 -0.65373632
vn 0.85414766 -0.38112681 -0.35379955
vn -9.9522938e-16 1.00000000 2.0615466e-15
g cone1_copy8_default
usemtl default
s 1
f 1//1 17//17 2//2
f 2//2 3//3 4//4 5//5 6//6 7//7 8//8 9//9 10//10 11//11 12//12 13//13 14//14 15//15 16//16 1//1
f 2//2 17//17 3//3
f 3//3 17//17 4//4
f 4//4 17//17 5//5
f 5//5 17//17 6//6
f 6//6 17//17 7//7
f 7//7 17//17 8//8
f 8//8 17//17 9//9
f 9//9 17//17 10//10
f 10//10 17//17 11//11
f 11//11 17//17 12//12
f 12//12 17//17 13//13
f 13//13 17//17 14//14
f 14//14 17//17 15//15
f 15//15 17//17 16//16
f 16//16 17//17 1//1
o cone2_copy6
#17 vertices, 17 faces
v 1.31108360 -0.17236541 -0.24143435
v 1.28191180 -0.17236541 -0.10006203
v 1.19883754 -0.17236541 1.9787636e-2
v 1.07450813 -0.17236541 9.9868622e-2
v 0.92785160 -0.17236541 0.12798932
v 0.78119506 -0.17236541 9.9868622e-2
v 0.65686565 -0.17236541 1.9787636e-2
v 0.57379140 -0.17236541 -0.10006203
v 0.54461960 -0.17236541 -0.24143435
v 0.57379140 -0.17236541 -0.38280667
v 0.65686565 -0.17236541 -0.50265633
v 0.78119506 -0.17236541 -0.58273732
v 0.92785160 -0.17236541 -0.61085802
v 1.07450813 -0.17236541 -0.58273732
v 1.19883754 -0.17236541 -0.50265633
v 1.28191180 -0.17236541 -0.38280667
v 0.92785160 1.82363459 -0.24143435
vn 0.95033852 -0.31121808 -6.0290815e-16
vn 0.87332857 -0.31184906 0.37422903
vn 0.65998756 -0.31334681 0.68281052
vn 0.35276788 -0.31480875 0.88116416
vn 0.0000000e+0 -0.31540394 0.94895751
vn -0.35276788 -0.31480875 0.88116416
vn -0.65998756 -0.31334681 0.68281052
vn -0.87332857 -0.31184906 0.37422903
vn -0.95033852 -0.31121808 1.9183441e-16
vn -0.87332857 -0.31184906 -0.37422903
vn -0.65998756 -0.31334681 -0.68281052
vn -0.35276788 -0.31480875 -0.88116416
vn -1.3629067e-16 -0.31540394 -0.94895751
vn 0.35276788 -0.31480875 -0.88116416
vn 0.65998756 -0.31334681 -0.68281052
vn 0.87332857 -0.31184906 -0.37422903
vn -2.2901949e-16 1.00000000 -1.9084958e-16
g cone2_copy6_default
usemtl default
s 1
f 18//18 34//34 19//19
f 19//19 20//20 21//21 22//22 23//23 24//24 25//25 26//26 27//27 28//28 29//29 30//30 31//31 32//32 33//33 18//18
f 19//19 34//34 20//20
f 20//20 34//34 21//21
f 21//21 34//34 22//22
f 22//22 34//34 23//23
f 23//23 34//34 24//24
f 24//24 34//34 25//25
f 25//25 34//34 26//26
f 26//26 34//34 27//27
f 27//27 34//34 28//28
f 28//28 34//34 29//29
f 29//29 34//34 30//30
f 30//30 34//34 31//31
f 31//31 34//34 32//32
f 32//32 34//34 33//33
f 33//33 34//34 18//18
o cone1_copy5
#17 vertices, 17 faces
v -0.48883734 5.9402337e-2 -0.82233739
v -0.50900927 5.9402337e-2 -0.72092628
v -0.56645404 5.9402337e-2 -0.63495409
v -0.65242623 5.9402337e-2 -0.57750931
v -0.75383734 5.9402337e-2 -0.55733739
v -0.85524845 5.9402337e-2 -0.57750931
v -0.94122064 5.9402337e-2 -0.63495409
v -0.99866542 5.9402337e-2 -0.72092628
v -1.01883734 5.9402337e-2 -0.82233739
v -0.99866542 5.9402337e-2 -0.92374850
v -0.94122064 5.9402337e-2 -1.00972069
v -0.85524845 5.9402337e-2 -1.06716546
v -0.75383734 5.9402337e-2 -1.08733739
v -0.65242623 5.9402337e-2 -1.06716546
v -0.56645404 5.9402337e-2 -1.00972069
v -0.50900927 5.9402337e-2 -0.92374850
v -0.75383734 2.70940234 -0.82233739
vn 0.92452277 -0.38112681 0.0000000e+0
vn 0.85414766 -0.38112681 0.35379955
vn 0.65373632 -0.38112681 0.65373632
vn 0.35379955 -0.38112681 0.85414766
vn 0.0000000e+0 -0.38112681 0.92452277
vn -0.35379955 -0.38112681 0.85414766
vn -0.65373632 -0.38112681 0.65373632
vn -0.85414766 -0.38112681 0.35379955
vn -0.92452277 -0.38112681 1.1041347e-15
vn -0.85414766 -0.38112681 -0.35379955
vn -0.65373632 -0.38112681 -0.65373632
vn -0.35379955 -0.38112681 -0.85414766
vn 1.9716690e-16 -0.38112681 -0.92452277
vn 0.35379955 -0.38112681 -0.85414766
vn 0.65373632 -0.38112681 -0.65373632
vn 0.85414766 -0.38112681 -0.35379955
vn -1.4928441e-15 1.00000000 5.3315859e-16
g cone1_copy5_default
usemtl default
s 1
f 35//35 51//51 36//36
f 36//36 37//37 38//38 39//39 40//40 41//41 42//42 43//43 44//44 45//45 46//46 47//47 48//48 49//49 50//50 35//35
f 36//36 51//51 37//37
f 37//37 51//51 38//38
f 38//38 51//51 39//39
f 39//39 51//51 40//40
f 40//40 51//51 41//41
f 41//41 51//51 42//42
f 42//42 51//51 43//43
f 43//43 51//51 44//44
f 44//44 51//51 45//45
f 45//45 51//51 46//46
f 46//46 51//51 47//47
f 47//47 51//51 48//48
f 48//48 51//51 49//49
f 49//49 51//51 50//50
f 50//50 51//51 35//35
o cone1_copy4
#17 vertices, 17 faces
v 0.53485588 -5.6425411e-2 0.75765111
v 0.51468395 -5.6425411e-2 0.85906222
v 0.45723918 -5.6425411e-2 0.94503441
v 0.37126699 -5.6425411e-2 1.00247918
v 0.26985588 -5.6425411e-2 1.02265111
v 0.16844477 -5.6425411e-2 1.00247918
v 8.2472581e-2 -5.6425411e-2 0.94503441
v 2.5027802e-2 -5.6425411e-2 0.85906222
v 4.8558784e-3 -5.6425411e-2 0.75765111
v 2.5027802e-2 -5.6425411e-2 0.65624000
v 8.2472581e-2 -5.6425411e-2 0.57026781
v 0.16844477 -5.6425411e-2 0.51282303
v 0.26985588 -5.6425411e-2 0.49265111
v 0.37126699 -5.6425411e-2 0.51282303
v 0.45723918 -5.6425411e-2 0.57026781
v 0.51468395 -5.6425411e-2 0.65624000
v 0.26985588 2.13247459 0.75765111
vn 0.93092429 -0.36521223 0.0000000e+0
vn 0.86006189 -0.36521223 0.35624930
vn 0.65826287 -0.36521223 0.65826287
vn 0.35624930 -0.36521223 0.86006189
vn 0.0000000e+0 -0.36521223 0.93092429
vn -0.35624930 -0.36521223 0.86006189
vn -0.65826287 -0.36521223 0.65826287
vn -0.86006189 -0.36521223 0.35624930
vn -0.93092429 -0.36521223 9.6833069e-16
vn -0.86006189 -0.36521223 -0.35624930
vn -0.65826287 -0.36521223 -0.65826287
vn -0.35624930 -0.36521223 -0.86006189
vn 1.8570726e-16 -0.36521223 -0.93092429
vn 0.35624930 -0.36521223 -0.86006189
vn 0.65826287 -0.36521223 -0.65826287
vn 0.86006189 -0.36521223 -0.35624930
vn -5.8848653e-16 1.00000000 6.3262302e-16
g cone1_copy4_default
usemtl default
s 1
f 52//52 68//68 53//53
f 53//53 54//54 55//55 56//56 57//57 58//58 59//59 60//60 61//61 62//62 63//63 64//64 65//65 66//66 67//67 52//52
f 53//53 68//68 54//54
f 54//54 68//68 55//55
f 55//55 68//68 56//56
f 56//56 68//68 57//57
f 57//57 68//68 58//58
f 58//58 68//68 59//59
f 59//59 68//68 60//60
f 60//60 68//68 61//61
f 61//61 68//68 62//62
f 62//62 68//68 63//63
f 63//63 68//68 64//64
f 64//64 68//68 65//65
f 65//65 68//68 66//66
f 66//66 68//68 67//67
f 67//67 68//68 52//52
o cone1_copy3
#17 vertices, 17 faces
v 0.50000000 -8.4000000e-2 0.0000000e+0
v 0.46193977 -8.4000000e-2 0.19134172
v 0.35355339 -8.4000000e-2 0.35355339
v 0.19134172 -8.4000000e-2 0.46193977
v 3.0616170e-17 -8.4000000e-2 0.50000000
v -0.19134172 -8.4000000e-2 0.46193977
v -0.35355339 -8.4000000e-2 0.35355339
v -0.46193977 -8.4000000e-2 0.19134172
v -0.50000000 -8.4000000e-2 6.1232340e-17
v -0.46193977 -8.4000000e-2 -0.19134172
v -0.35355339 -8.4000000e-2 -0.35355339
v -0.19134172 -8.4000000e-2 -0.46193977
v -9.1848510e-17 -8.4000000e-2 -0.50000000
v 0.19134172 -8.4000000e-2 -0.46193977
v 0.35355339 -8.4000000e-2 -0.35355339
v 0.46193977 -8.4000000e-2 -0.19134172
v 0.0000000e+0 4.91600000 0.0000000e+0
vn 0.92452277 -0.38112681 -7.8866762e-17
vn 0.85414766 -0.38112681 0.35379955
vn 0.65373632 -0.38112681 0.65373632
vn 0.35379955 -0.38112681 0.85414766
vn 0.0000000e+0 -0.38112681 0.92452277
vn -0.35379955 -0.38112681 0.85414766
vn -0.65373632 -0.38112681 0.65373632
vn -0.85414766 -0.38112681 0.35379955
vn -0.92452277 -0.38112681 2.2345582e-16
vn -0.85414766 -0.38112681 -0.35379955
vn -0.65373632 -0.38112681 -0.65373632
vn -0.35379955 -0.38112681 -0.85414766
vn -2.2345582e-16 -0.38112681 -0.92452277
vn 0.35379955 -0.38112681 -0.85414766
vn 0.65373632 -0.38112681 -0.65373632
vn 0.85414766 -0.38112681 -0.35379955
vn -3.5543906e-16 1.00000000 4.9761469e-16
g cone1_copy3_default
usemtl default
s 1
f 69//69 85//85 70//70
f 70//70 71//71 72//72 73//73 74//74 75//75 76//76 77//77 78//78 79//79 80//80 81//81 82//82 83//83 84//84 69//69
f 70//70 85//85 71//71
f 71//71 85//85 72//72
f 72//72 85//85 73//73
f 73//73 85//85 74//74
f 74//74 85//85 75//75
f 75//75 85//85 76//76
f 76//76 85//85 77//77
f 77//77 85//85 78//78
f 78//78 85//85 79//79
f 79//79 85//85 80//80
f 80//80 85//85 81//81
f 81//81 85//85 82//82
f 82//82 85//85 83//83
f 83//83 85//85 84//84
f 84//84 85//85 69//69
o cone2
#17 vertices, 17 faces
v -0.83726889 -9.4995059e-2 0.36590956
v -0.86644069 -9.4995059e-2 0.50728188
v -0.94951495 -9.4995059e-2 0.62713155
v -1.07384435 -9.4995059e-2 0.70721253
v -1.22050089 -9.4995059e-2 0.73533323
v -1.36715743 -9.4995059e-2 0.70721253
v -1.49148684 -9.4995059e-2 0.62713155
v -1.57456109 -9.4995059e-2 0.50728188
v -1.60373289 -9.4995059e-2 0.36590956
v -1.57456109 -9.4995059e-2 0.22453724
v -1.49148684 -9.4995059e-2 0.10468758
v -1.36715743 -9.4995059e-2 2.4606593e-2
v -1.22050089 -9.4995059e-2 -3.5141100e-3
v -1.07384435 -9.4995059e-2 2.4606593e-2
v -0.94951495 -9.4995059e-2 0.10468758
v -0.86644069 -9.4995059e-2 0.22453724
v -1.22050089 1.90100494 0.36590956
vn 0.95033852 -0.31121808 -6.9882535e-16
vn 0.87332857 -0.31184906 0.37422903
vn 0.65998756 -0.31334681 0.68281052
vn 0.35276788 -0.31480875 0.88116416
vn 2.7258134e-17 -0.31540394 0.94895751
vn -0.35276788 -0.31480875 0.88116416
vn -0.65998756 -0.31334681 0.68281052
vn -0.87332857 -0.31184906 0.37422903
vn -0.95033852 -0.31121808 2.3294178e-16
vn -0.87332857 -0.31184906 -0.37422903
vn -0.65998756 -0.31334681 -0.68281052
vn -0.35276788 -0.31480875 -0.88116416
vn -1.0903254e-16 -0.31540394 -0.94895751
vn 0.35276788 -0.31480875 -0.88116416
vn 0.65998756 -0.31334681 -0.68281052
vn 0.87332857 -0.31184906 -0.37422903
vn -1.5267966e-16 1.00000000 2.9581684e-16
g cone2_default
usemtl default
s 1
f 86//86 102//102 87//87
f 87//87 88//88 89//89 90//90 91//91 92//92 93//93 94//94 95//95 96//96 97//97 98//98 99//99 100//100 101//101 86//86
f 87//87 102//102 88//88
f 88//88 102//102 89//89
f 89//89 102//102 90//90
f 90//90 102//102 91//91
f 91//91 102//102 92//92
f 92//92 102//102 93//93
f 93//93 102//102 94//94
f 94//94 102//102 95//95
f 95//95 102//102 96//96
f 96//96 102//102 97//97
f 97//97 102//102 98//98
f 98//98 102//102 99//99
f 99//99 102//102 100//100
f 100//100 102//102 101//101
f 101//101 102//102 86//86
o cone1
#17 vertices, 17 faces
v -0.28897221 -4.5591332e-2 1.00121413
v -0.30153209 -4.5591332e-2 1.06435689
v -0.33729959 -4.5591332e-2 1.11788675
v -0.39082945 -4.5591332e-2 1.15365425
v -0.45397221 -4.5591332e-2 1.16621413
v -0.51711498 -4.5591332e-2 1.15365425
v -0.57064483 -4.5591332e-2 1.11788675
v -0.60641233 -4.5591332e-2 1.06435689
v -0.61897221 -4.5591332e-2 1.00121413
v -0.60641233 -4.5591332e-2 0.93807136
v -0.57064483 -4.5591332e-2 0.88454151
v -0.51711498 -4.5591332e-2 0.84877400
v -0.45397221 -4.5591332e-2 0.83621413
v -0.39082945 -4.5591332e-2 0.84877400
v -0.33729959 -4.5591332e-2 0.88454151
v -0.30153209 -4.5591332e-2 0.93807136
v -0.45397221 1.60440867 1.00121413
vn 0.92452277 -0.38112681 -3.5490043e-16
vn 0.85414766 -0.38112681 0.35379955
vn 0.65373632 -0.38112681 0.65373632
vn 0.35379955 -0.38112681 0.85414766
vn 1.3144460e-17 -0.38112681 0.92452277
vn -0.35379955 -0.38112681 0.85414766
vn -0.65373632 -0.38112681 0.65373632
vn -0.85414766 -0.38112681 0.35379955
vn -0.92452277 -0.38112681 -7.3608978e-16
vn -0.85414766 -0.38112681 -0.35379955
vn -0.65373632 -0.38112681 -0.65373632
vn -0.35379955 -0.38112681 -0.85414766
vn -1.4458906e-16 -0.38112681 -0.92452277
vn 0.35379955 -0.38112681 -0.85414766
vn 0.65373632 -0.38112681 -0.65373632
vn 0.85414766 -0.38112681 -0.35379955
vn -5.6870250e-16 1.00000000 1.9726868e-15
g cone1_default
usemtl default
s 1
f 103//103 119//119 104//104
f 104//104 105//105 106//106 107//107 108//108 109//109 110//110 111//111 112//112 113//113 114//114 115//115 116//116 117//117 118//118 103//103
f 104//104 119//119 105//105
f 105//105 119//119 106//106
f 106//106 119//119 107//107
f 107//107 119//119 108//108
f 108//108 119//119 109//109
f 109//109 119//119 110//110
f 110//110 119//119 111//111
f 111//111 119//119 112//112
f 112//112 119//119 113//113
f 113//113 119//119 114//114
f 114//114 119//119 115//115
f 115//115 119//119 116//116
f 116//116 119//119 117//117
f 117//117 119//119 118//118
f 118//118 119//119 103//103
