# Exported from Wings 3D 1.5.3
mtllib arm.mtl
o sphere2
#114 vertices, 128 faces
v 0.51815337 1.25093289 9.4807203e-19
v 0.47871129 1.25093289 0.19828871
v 0.36638976 1.25093289 0.36638976
v 0.19828871 1.25093289 0.47871129
v 4.7241649e-17 1.25093289 0.51815337
v -0.19828871 1.25093289 0.47871129
v -0.36638976 1.25093289 0.36638976
v -0.47871129 1.25093289 0.19828871
v -0.51815337 1.25093289 6.4403558e-17
v -0.47871129 1.25093289 -0.19828871
v -0.36638976 1.25093289 -0.36638976
v -0.19828871 1.25093289 -0.47871129
v -7.9669323e-17 1.25093289 -0.51815337
v 0.19828871 1.25093289 -0.47871129
v 0.36638976 1.25093289 -0.36638976
v 0.47871129 1.25093289 -0.19828871
v 0.95742258 0.95742258 9.4807203e-19
v 0.88454313 0.95742258 0.36638976
v 0.67700000 0.95742258 0.67700000
v 0.36638976 0.95742258 0.88454313
v 7.4139131e-17 0.95742258 0.95742258
v -0.36638976 0.95742258 0.88454313
v -0.67700000 0.95742258 0.67700000
v -0.88454313 0.95742258 0.36638976
v -0.95742258 0.95742258 1.1819852e-16
v -0.88454313 0.95742258 -0.36638976
v -0.67700000 0.95742258 -0.67700000
v -0.36638976 0.95742258 -0.88454313
v -1.6036177e-16 0.95742258 -0.95742258
v 0.36638976 0.95742258 -0.88454313
v 0.67700000 0.95742258 -0.67700000
v 0.88454313 0.95742258 -0.36638976
v 1.25093289 0.51815337 9.4807203e-19
v 1.15571129 0.51815337 0.47871129
v 0.88454313 0.51815337 0.88454313
v 0.47871129 0.51815337 1.15571129
v 9.2111454e-17 0.51815337 1.25093289
v -0.47871129 0.51815337 1.15571129
v -0.88454313 0.51815337 0.88454313
v -1.15571129 0.51815337 0.47871129
v -1.25093289 0.51815337 1.5414317e-16
v -1.15571129 0.51815337 -0.47871129
v -0.88454313 0.51815337 -0.88454313
v -0.47871129 0.51815337 -1.15571129
v -2.1427874e-16 0.51815337 -1.25093289
v 0.47871129 0.51815337 -1.15571129
v 0.88454313 0.51815337 -0.88454313
v 1.15571129 0.51815337 -0.47871129
v 1.35400000 9.4630206e-17 9.4807203e-19
v 1.25093289 9.4630206e-17 0.51815337
v 0.95742258 9.4630206e-17 0.95742258
v 0.51815337 9.4630206e-17 1.25093289
v 9.8422494e-17 9.4630206e-17 1.35400000
v -0.51815337 9.4630206e-17 1.25093289
v -0.95742258 9.4630206e-17 0.95742258
v -1.25093289 9.4630206e-17 0.51815337
v -1.35400000 9.4630206e-17 1.6676525e-16
v -1.25093289 9.4630206e-17 -0.51815337
v -0.95742258 9.4630206e-17 -0.95742258
v -0.51815337 9.4630206e-17 -1.25093289
v -2.3321186e-16 9.4630206e-17 -1.35400000
v 0.51815337 9.4630206e-17 -1.25093289
v 0.95742258 9.4630206e-17 -0.95742258
v 1.25093289 9.4630206e-17 -0.51815337
v 1.25093289 -0.51815337 9.4807203e-19
v 1.15571129 -0.51815337 0.47871129
v 0.88454313 -0.51815337 0.88454313
v 0.47871129 -0.51815337 1.15571129
v 9.2111454e-17 -0.51815337 1.25093289
v -0.47871129 -0.51815337 1.15571129
v -0.88454313 -0.51815337 0.88454313
v -1.15571129 -0.51815337 0.47871129
v -1.25093289 -0.51815337 1.5414317e-16
v -1.15571129 -0.51815337 -0.47871129
v -0.88454313 -0.51815337 -0.88454313
v -0.47871129 -0.51815337 -1.15571129
v -2.1427874e-16 -0.51815337 -1.25093289
v 0.47871129 -0.51815337 -1.15571129
v 0.88454313 -0.51815337 -0.88454313
v 1.15571129 -0.51815337 -0.47871129
v 0.95742258 -0.95742258 9.4807203e-19
v 0.88454313 -0.95742258 0.36638976
v 0.67700000 -0.95742258 0.67700000
v 0.36638976 -0.95742258 0.88454313
v 7.4139131e-17 -0.95742258 0.95742258
v -0.36638976 -0.95742258 0.88454313
v -0.67700000 -0.95742258 0.67700000
v -0.88454313 -0.95742258 0.36638976
v -0.95742258 -0.95742258 1.1819852e-16
v -0.88454313 -0.95742258 -0.36638976
v -0.67700000 -0.95742258 -0.67700000
v -0.36638976 -0.95742258 -0.88454313
v -1.6036177e-16 -0.95742258 -0.95742258
v 0.36638976 -0.95742258 -0.88454313
v 0.67700000 -0.95742258 -0.67700000
v 0.88454313 -0.95742258 -0.36638976
v 0.51815337 -1.25093289 9.4807203e-19
v 0.47871129 -1.25093289 0.19828871
v 0.36638976 -1.25093289 0.36638976
v 0.19828871 -1.25093289 0.47871129
v 4.7241649e-17 -1.25093289 0.51815337
v -0.19828871 -1.25093289 0.47871129
v -0.36638976 -1.25093289 0.36638976
v -0.47871129 -1.25093289 0.19828871
v -0.51815337 -1.25093289 6.4403558e-17
v -0.47871129 -1.25093289 -0.19828871
v -0.36638976 -1.25093289 -0.36638976
v -0.19828871 -1.25093289 -0.47871129
v -7.9669323e-17 -1.25093289 -0.51815337
v 0.19828871 -1.25093289 -0.47871129
v 0.36638976 -1.25093289 -0.36638976
v 0.47871129 -1.25093289 -0.19828871
v 1.5513906e-17 1.35400000 9.4807203e-19
v 1.5513906e-17 -1.35400000 9.4807203e-19
vn 0.38219484 0.92408176 1.0648471e-16
vn 0.35310199 0.92408176 0.14625963
vn 0.27025256 0.92408176 0.27025256
vn 0.14625963 0.92408176 0.35310199
vn 0.0000000e+0 0.92408176 0.38219484
vn -0.14625963 0.92408176 0.35310199
vn -0.27025256 0.92408176 0.27025256
vn -0.35310199 0.92408176 0.14625963
vn -0.38219484 0.92408176 1.4197962e-17
vn -0.35310199 0.92408176 -0.14625963
vn -0.27025256 0.92408176 -0.27025256
vn -0.14625963 0.92408176 -0.35310199
vn -3.5494904e-17 0.92408176 -0.38219484
vn 0.14625963 0.92408176 -0.35310199
vn 0.27025256 0.92408176 -0.27025256
vn 0.35310199 0.92408176 -0.14625963
vn 0.70658450 0.70762868 -9.2876205e-17
vn 0.65279895 0.70762868 0.27039818
vn 0.49963069 0.70762868 0.49963069
vn 0.27039818 0.70762868 0.65279895
vn 0.0000000e+0 0.70762868 0.70658450
vn -0.27039818 0.70762868 0.65279895
vn -0.49963069 0.70762868 0.49963069
vn -0.65279895 0.70762868 0.27039818
vn -0.70658450 0.70762868 8.5731882e-17
vn -0.65279895 0.70762868 -0.27039818
vn -0.49963069 0.70762868 -0.49963069
vn -0.27039818 0.70762868 -0.65279895
vn -1.4288647e-17 0.70762868 -0.70658450
vn 0.27039818 0.70762868 -0.65279895
vn 0.49963069 0.70762868 -0.49963069
vn 0.65279895 0.70762868 -0.27039818
vn 0.92368212 0.38315969 -7.9084817e-17
vn 0.85337100 0.38315969 0.35347784
vn 0.65314189 0.38315969 0.65314189
vn 0.35347784 0.38315969 0.85337100
vn 0.0000000e+0 0.38315969 0.92368212
vn -0.35347784 0.38315969 0.85337100
vn -0.65314189 0.38315969 0.65314189
vn -0.85337100 0.38315969 0.35347784
vn -0.92368212 0.38315969 1.7254869e-16
vn -0.85337100 0.38315969 -0.35347784
vn -0.65314189 0.38315969 -0.65314189
vn -0.35347784 0.38315969 -0.85337100
vn -4.3137173e-17 0.38315969 -0.92368212
vn 0.35347784 0.38315969 -0.85337100
vn 0.65314189 0.38315969 -0.65314189
vn 0.85337100 0.38315969 -0.35347784
vn 1.00000000 2.1624638e-17 -5.7665700e-17
vn 0.92387953 7.2082126e-18 0.38268343
vn 0.70710678 0.0000000e+0 0.70710678
vn 0.38268343 2.1624638e-17 0.92387953
vn 0.0000000e+0 2.8832850e-17 1.00000000
vn -0.38268343 2.8832850e-17 0.92387953
vn -0.70710678 2.1624638e-17 0.70710678
vn -0.92387953 2.1624638e-17 0.38268343
vn -1.00000000 2.8832850e-17 1.9462174e-16
vn -0.92387953 2.8832850e-17 -0.38268343
vn -0.70710678 3.6041063e-17 -0.70710678
vn -0.38268343 7.2082126e-18 -0.92387953
vn -1.0091498e-16 7.2082126e-18 -1.00000000
vn 0.38268343 1.4416425e-17 -0.92387953
vn 0.70710678 2.1624638e-17 -0.70710678
vn 0.92387953 7.2082126e-18 -0.38268343
vn 0.92368212 -0.38315969 -3.5947644e-17
vn 0.85337100 -0.38315969 0.35347784
vn 0.65314189 -0.38315969 0.65314189
vn 0.35347784 -0.38315969 0.85337100
vn 7.1895288e-18 -0.38315969 0.92368212
vn -0.35347784 -0.38315969 0.85337100
vn -0.65314189 -0.38315969 0.65314189
vn -0.85337100 -0.38315969 0.35347784
vn -0.92368212 -0.38315969 1.7254869e-16
vn -0.85337100 -0.38315969 -0.35347784
vn -0.65314189 -0.38315969 -0.65314189
vn -0.35347784 -0.38315969 -0.85337100
vn -5.0326702e-17 -0.38315969 -0.92368212
vn 0.35347784 -0.38315969 -0.85337100
vn 0.65314189 -0.38315969 -0.65314189
vn 0.85337100 -0.38315969 -0.35347784
vn 0.70658450 -0.70762868 -2.5005132e-17
vn 0.65279895 -0.70762868 0.27039818
vn 0.49963069 -0.70762868 0.49963069
vn 0.27039818 -0.70762868 0.65279895
vn 1.4288647e-17 -0.70762868 0.70658450
vn -0.27039818 -0.70762868 0.65279895
vn -0.49963069 -0.70762868 0.49963069
vn -0.65279895 -0.70762868 0.27039818
vn -0.70658450 -0.70762868 1.2145350e-16
vn -0.65279895 -0.70762868 -0.27039818
vn -0.49963069 -0.70762868 -0.49963069
vn -0.27039818 -0.70762868 -0.65279895
vn -1.7860809e-17 -0.70762868 -0.70658450
vn 0.27039818 -0.70762868 -0.65279895
vn 0.49963069 -0.70762868 -0.49963069
vn 0.65279895 -0.70762868 -0.27039818
vn 0.38219484 -0.92408176 1.2778166e-16
vn 0.35310199 -0.92408176 0.14625963
vn 0.27025256 -0.92408176 0.27025256
vn 0.14625963 -0.92408176 0.35310199
vn 3.5494904e-18 -0.92408176 0.38219484
vn -0.14625963 -0.92408176 0.35310199
vn -0.27025256 -0.92408176 0.27025256
vn -0.35310199 -0.92408176 0.14625963
vn -0.38219484 -0.92408176 2.4491484e-16
vn -0.35310199 -0.92408176 -0.14625963
vn -0.27025256 -0.92408176 -0.27025256
vn -0.14625963 -0.92408176 -0.35310199
vn -5.3242356e-17 -0.92408176 -0.38219484
vn 0.14625963 -0.92408176 -0.35310199
vn 0.27025256 -0.92408176 -0.27025256
vn 0.35310199 -0.92408176 -0.14625963
vn 1.7700400e-18 1.00000000 -3.9825899e-18
vn 8.8501998e-18 -1.00000000 3.1418209e-17
g sphere2_default
usemtl default
s 1
f 1//1 17//17 32//32 16//16
f 1//1 113//113 2//2
f 2//2 18//18 17//17 1//1
f 2//2 113//113 3//3
f 3//3 19//19 18//18 2//2
f 3//3 113//113 4//4
f 4//4 20//20 19//19 3//3
f 4//4 113//113 5//5
f 5//5 21//21 20//20 4//4
f 5//5 113//113 6//6
f 6//6 22//22 21//21 5//5
f 6//6 113//113 7//7
f 7//7 23//23 22//22 6//6
f 7//7 113//113 8//8
f 8//8 24//24 23//23 7//7
f 8//8 113//113 9//9
f 9//9 25//25 24//24 8//8
f 9//9 113//113 10//10
f 10//10 26//26 25//25 9//9
f 10//10 113//113 11//11
f 11//11 27//27 26//26 10//10
f 11//11 113//113 12//12
f 12//12 28//28 27//27 11//11
f 12//12 113//113 13//13
f 13//13 29//29 28//28 12//12
f 13//13 113//113 14//14
f 14//14 30//30 29//29 13//13
f 14//14 113//113 15//15
f 15//15 31//31 30//30 14//14
f 15//15 113//113 16//16
f 16//16 32//32 31//31 15//15
f 16//16 113//113 1//1
f 17//17 33//33 48//48 32//32
f 18//18 34//34 33//33 17//17
f 19//19 35//35 34//34 18//18
f 20//20 36//36 35//35 19//19
f 21//21 37//37 36//36 20//20
f 22//22 38//38 37//37 21//21
f 23//23 39//39 38//38 22//22
f 24//24 40//40 39//39 23//23
f 25//25 41//41 40//40 24//24
f 26//26 42//42 41//41 25//25
f 27//27 43//43 42//42 26//26
f 28//28 44//44 43//43 27//27
f 29//29 45//45 44//44 28//28
f 30//30 46//46 45//45 29//29
f 31//31 47//47 46//46 30//30
f 32//32 48//48 47//47 31//31
f 33//33 49//49 64//64 48//48
f 34//34 50//50 49//49 33//33
f 35//35 51//51 50//50 34//34
f 36//36 52//52 51//51 35//35
f 37//37 53//53 52//52 36//36
f 38//38 54//54 53//53 37//37
f 39//39 55//55 54//54 38//38
f 40//40 56//56 55//55 39//39
f 41//41 57//57 56//56 40//40
f 42//42 58//58 57//57 41//41
f 43//43 59//59 58//58 42//42
f 44//44 60//60 59//59 43//43
f 45//45 61//61 60//60 44//44
f 46//46 62//62 61//61 45//45
f 47//47 63//63 62//62 46//46
f 48//48 64//64 63//63 47//47
f 49//49 65//65 80//80 64//64
f 50//50 66//66 65//65 49//49
f 51//51 67//67 66//66 50//50
f 52//52 68//68 67//67 51//51
f 53//53 69//69 68//68 52//52
f 54//54 70//70 69//69 53//53
f 55//55 71//71 70//70 54//54
f 56//56 72//72 71//71 55//55
f 57//57 73//73 72//72 56//56
f 58//58 74//74 73//73 57//57
f 59//59 75//75 74//74 58//58
f 60//60 76//76 75//75 59//59
f 61//61 77//77 76//76 60//60
f 62//62 78//78 77//77 61//61
f 63//63 79//79 78//78 62//62
f 64//64 80//80 79//79 63//63
f 65//65 81//81 96//96 80//80
f 66//66 82//82 81//81 65//65
f 67//67 83//83 82//82 66//66
f 68//68 84//84 83//83 67//67
f 69//69 85//85 84//84 68//68
f 70//70 86//86 85//85 69//69
f 71//71 87//87 86//86 70//70
f 72//72 88//88 87//87 71//71
f 73//73 89//89 88//88 72//72
f 74//74 90//90 89//89 73//73
f 75//75 91//91 90//90 74//74
f 76//76 92//92 91//91 75//75
f 77//77 93//93 92//92 76//76
f 78//78 94//94 93//93 77//77
f 79//79 95//95 94//94 78//78
f 80//80 96//96 95//95 79//79
f 81//81 97//97 112//112 96//96
f 82//82 98//98 97//97 81//81
f 83//83 99//99 98//98 82//82
f 84//84 100//100 99//99 83//83
f 85//85 101//101 100//100 84//84
f 86//86 102//102 101//101 85//85
f 87//87 103//103 102//102 86//86
f 88//88 104//104 103//103 87//87
f 89//89 105//105 104//104 88//88
f 90//90 106//106 105//105 89//89
f 91//91 107//107 106//106 90//90
f 92//92 108//108 107//107 91//91
f 93//93 109//109 108//108 92//92
f 94//94 110//110 109//109 93//93
f 95//95 111//111 110//110 94//94
f 96//96 112//112 111//111 95//95
f 97//97 114//114 112//112
f 98//98 114//114 97//97
f 99//99 114//114 98//98
f 100//100 114//114 99//99
f 101//101 114//114 100//100
f 102//102 114//114 101//101
f 103//103 114//114 102//102
f 104//104 114//114 103//103
f 105//105 114//114 104//104
f 106//106 114//114 105//105
f 107//107 114//114 106//106
f 108//108 114//114 107//107
f 109//109 114//114 108//108
f 110//110 114//114 109//109
f 111//111 114//114 110//110
f 112//112 114//114 111//111
o Cylinder1
#64 vertices, 50 faces
v 0.71800000 0.47377991 -1.32176201
v 0.66334550 0.73243233 -1.22904917
v 0.50770267 0.95170725 -1.15045101
v 0.27476670 1.09822207 -1.09793340
v -5.3221328e-17 1.14967124 -1.07949167
v -0.27476670 1.09822207 -1.09793340
v -0.50770267 0.95170725 -1.15045101
v -0.66334550 0.73243233 -1.22904917
v -0.71800000 0.47377991 -1.32176201
v -0.66334550 0.21512750 -1.41447486
v -0.50770267 -4.1474242e-3 -1.49307301
v -0.27476670 -0.15066225 -1.54559062
v -2.2908061e-16 -0.20211141 -1.56403235
v 0.27476670 -0.15066225 -1.54559062
v 0.50770267 -4.1474242e-3 -1.49307301
v 0.66334550 0.21512750 -1.41447486
v 0.71800000 -1.0760767e-2 3.0020634e-2
v 0.66334550 0.24789164 0.12273348
v 0.50770267 0.46716657 0.20133164
v 0.27476670 0.61368139 0.25384924
v -5.3221328e-17 0.66513056 0.27229098
v -0.27476670 0.61368139 0.25384924
v -0.50770267 0.46716657 0.20133164
v -0.66334550 0.24789164 0.12273348
v -0.71800000 -1.0760767e-2 3.0020634e-2
v -0.66334550 -0.26941318 -6.2692211e-2
v -0.50770267 -0.48868811 -0.14129037
v -0.27476670 -0.63520293 -0.19380797
v -2.2908061e-16 -0.68665209 -0.21224971
v 0.27476670 -0.63520293 -0.19380797
v 0.50770267 -0.48868811 -0.14129037
v 0.66334550 -0.26941318 -6.2692211e-2
v 0.66334550 2.25850107 -5.48651056
v 0.71800000 1.99984866 -5.57922340
v 0.66334550 1.74119624 -5.67193625
v 0.50770267 1.52192132 -5.75053441
v 0.27476670 1.37540650 -5.80305201
v -8.8513352e-16 1.32395733 -5.82149375
v -0.27476670 1.37540650 -5.80305201
v -0.50770267 1.52192132 -5.75053441
v -0.66334550 1.74119624 -5.67193625
v -0.71800000 1.99984866 -5.57922340
v -0.66334550 2.25850107 -5.48651056
v -0.50770267 2.47777599 -5.40791240
v -0.27476670 2.62429082 -5.35539480
v -7.0927424e-16 2.67573998 -5.33695306
v 0.27476670 2.62429082 -5.35539480
v 0.50770267 2.47777599 -5.40791240
v 0.66334550 3.19290325 -8.09332708
v 0.71800000 2.93425084 -8.18603992
v 0.66334550 2.67559842 -8.27875277
v 0.50770267 2.45632350 -8.35735092
v 0.27476670 2.30980868 -8.40986853
v -1.0593212e-16 2.25835951 -8.42831026
v -0.27476670 2.30980868 -8.40986853
v -0.50770267 2.45632350 -8.35735092
v -0.66334550 2.67559842 -8.27875277
v -0.71800000 2.93425084 -8.18603992
v -0.66334550 3.19290325 -8.09332708
v -0.50770267 3.41217817 -8.01472892
v -0.27476670 3.55869300 -7.96221131
v 6.9927161e-17 3.61014216 -7.94376958
v 0.27476670 3.55869300 -7.96221131
v 0.50770267 3.41217817 -8.01472892
vn 1.00000000 -1.7687087e-16 -1.4149670e-16
vn 0.92387953 0.36024013 0.12912653
vn 0.70710678 0.66563696 0.23859471
vn 0.38268343 0.86969660 0.31173901
vn 0.0000000e+0 0.94135282 0.33742387
vn -0.38268343 0.86969660 0.31173901
vn -0.70710678 0.66563696 0.23859471
vn -0.92387953 0.36024013 0.12912653
vn -1.00000000 7.0748349e-18 7.4285766e-17
vn -0.92387953 -0.36024013 -0.12912653
vn -0.70710678 -0.66563696 -0.23859471
vn -0.38268343 -0.86969660 -0.31173901
vn -1.3442186e-16 -0.94135282 -0.33742387
vn 0.38268343 -0.86969660 -0.31173901
vn 0.70710678 -0.66563696 -0.23859471
vn 0.92387953 -0.36024013 -0.12912653
vn 0.89090915 -0.15325170 0.42754508
vn 0.82309273 0.16768953 0.54258508
vn 0.62996790 0.43977037 0.64011129
vn 0.34093617 0.62156897 0.70527622
vn 0.0000000e+0 0.68540815 0.72815910
vn -0.34093617 0.62156897 0.70527622
vn -0.62996790 0.43977037 0.64011129
vn -0.82309273 0.16768953 0.54258508
vn -0.89090915 -0.15325170 0.42754508
vn -0.82309273 -0.47419292 0.31250508
vn -0.62996790 -0.74627376 0.21497887
vn -0.34093617 -0.92807236 0.14981394
vn -6.3030352e-17 -0.99191154 0.12693106
vn 0.34093617 -0.92807236 0.14981394
vn 0.62996790 -0.74627376 0.21497887
vn 0.82309273 -0.47419292 0.31250508
vn 0.92387953 0.36024013 0.12912653
vn 1.00000000 -1.6979604e-16 1.4149670e-17
vn 0.92387953 -0.36024013 -0.12912653
vn 0.70710678 -0.66563696 -0.23859471
vn 0.38268343 -0.86969660 -0.31173901
vn -3.8204108e-16 -0.94135282 -0.33742387
vn -0.38268343 -0.86969660 -0.31173901
vn -0.70710678 -0.66563696 -0.23859471
vn -0.92387953 -0.36024013 -0.12912653
vn -1.00000000 1.0612252e-16 -3.8911592e-17
vn -0.92387953 0.36024013 0.12912653
vn -0.70710678 0.66563696 0.23859471
vn -0.38268343 0.86969660 0.31173901
vn 1.4149670e-17 0.94135282 0.33742387
vn 0.38268343 0.86969660 0.31173901
vn 0.70710678 0.66563696 0.23859471
vn 0.82309273 0.47419292 -0.31250508
vn 0.89090915 0.15325170 -0.42754508
vn 0.82309273 -0.16768953 -0.54258508
vn 0.62996790 -0.43977037 -0.64011129
vn 0.34093617 -0.62156897 -0.70527622
vn -2.5212141e-16 -0.68540815 -0.72815910
vn -0.34093617 -0.62156897 -0.70527622
vn -0.62996790 -0.43977037 -0.64011129
vn -0.82309273 -0.16768953 -0.54258508
vn -0.89090915 0.15325170 -0.42754508
vn -0.82309273 0.47419292 -0.31250508
vn -0.62996790 0.74627376 -0.21497887
vn -0.34093617 0.92807236 -0.14981394
vn 2.7733355e-16 0.99191154 -0.12693106
vn 0.34093617 0.92807236 -0.14981394
vn 0.62996790 0.74627376 -0.21497887
g Cylinder1_default
usemtl default
s 1
f 115//115 131//131 146//146 130//130
f 115//115 148//148 147//147 116//116
f 116//116 132//132 131//131 115//115
f 116//116 147//147 162//162 117//117
f 117//117 133//133 132//132 116//116
f 117//117 162//162 161//161 118//118
f 118//118 134//134 133//133 117//117
f 118//118 161//161 160//160 119//119
f 119//119 135//135 134//134 118//118
f 119//119 160//160 159//159 120//120
f 120//120 136//136 135//135 119//119
f 120//120 159//159 158//158 121//121
f 121//121 137//137 136//136 120//120
f 121//121 158//158 157//157 122//122
f 122//122 138//138 137//137 121//121
f 122//122 157//157 156//156 123//123
f 123//123 139//139 138//138 122//122
f 123//123 156//156 155//155 124//124
f 124//124 140//140 139//139 123//123
f 124//124 155//155 154//154 125//125
f 125//125 141//141 140//140 124//124
f 125//125 154//154 153//153 126//126
f 126//126 142//142 141//141 125//125
f 126//126 153//153 152//152 127//127
f 127//127 143//143 142//142 126//126
f 127//127 152//152 151//151 128//128
f 128//128 144//144 143//143 127//127
f 128//128 151//151 150//150 129//129
f 129//129 145//145 144//144 128//128
f 129//129 150//150 149//149 130//130
f 130//130 146//146 145//145 129//129
f 130//130 149//149 148//148 115//115
f 132//132 133//133 134//134 135//135 136//136 137//137 138//138 139//139 140//140 141//141 142//142 143//143 144//144 145//145 146//146 131//131
f 147//147 163//163 178//178 162//162
f 148//148 164//164 163//163 147//147
f 149//149 165//165 164//164 148//148
f 150//150 166//166 165//165 149//149
f 151//151 167//167 166//166 150//150
f 152//152 168//168 167//167 151//151
f 153//153 169//169 168//168 152//152
f 154//154 170//170 169//169 153//153
f 155//155 171//171 170//170 154//154
f 156//156 172//172 171//171 155//155
f 157//157 173//173 172//172 156//156
f 158//158 174//174 173//173 157//157
f 159//159 175//175 174//174 158//158
f 160//160 176//176 175//175 159//159
f 161//161 177//177 176//176 160//160
f 162//162 178//178 177//177 161//161
f 164//164 165//165 166//166 167//167 168//168 169//169 170//170 171//171 172//172 173//173 174//174 175//175 176//176 177//177 178//178 163//163
