# Exported from Wings 3D 1.5.3
mtllib bicept.mtl
o sphere2
#114 vertices, 128 faces
v -0.57380009 0.44348916 -8.4630159e-19
v -0.59372504 0.44348916 0.10016948
v -0.65046649 0.44348916 0.18508907
v -0.73538607 0.44348916 0.24183052
v -0.83555556 0.44348916 0.26175547
v -0.93572504 0.44348916 0.24183052
v -1.02064462 0.44348916 0.18508907
v -1.07738607 0.44348916 0.10016948
v -1.09731102 0.44348916 3.1209498e-17
v -1.07738607 0.44348916 -0.10016948
v -1.02064462 0.44348916 -0.18508907
v -0.93572504 0.44348916 -0.24183052
v -0.83555556 0.44348916 -0.26175547
v -0.73538607 0.44348916 -0.24183052
v -0.65046649 0.44348916 -0.18508907
v -0.59372504 0.44348916 -0.10016948
v -0.35189452 0.29521659 -8.4630159e-19
v -0.38871102 0.29521659 0.18508907
v -0.49355556 0.29521659 0.34200000
v -0.65046649 0.29521659 0.44684453
v -0.83555556 0.29521659 0.48366104
v -1.02064462 0.29521659 0.44684453
v -1.17755556 0.29521659 0.34200000
v -1.28240009 0.29521659 0.18508907
v -1.31921659 0.29521659 5.8385093e-17
v -1.28240009 0.29521659 -0.18508907
v -1.17755556 0.29521659 -0.34200000
v -1.02064462 0.29521659 -0.44684453
v -0.83555556 0.29521659 -0.48366104
v -0.65046649 0.29521659 -0.44684453
v -0.49355556 0.29521659 -0.34200000
v -0.38871102 0.29521659 -0.18508907
v -0.20362196 7.3311023e-2 -8.4630159e-19
v -0.25172504 7.3311023e-2 0.24183052
v -0.38871102 7.3311023e-2 0.44684453
v -0.59372504 7.3311023e-2 0.58383052
v -0.83555556 7.3311023e-2 0.63193360
v -1.07738607 7.3311023e-2 0.58383052
v -1.28240009 7.3311023e-2 0.44684453
v -1.41938607 7.3311023e-2 0.24183052
v -1.46748916 7.3311023e-2 7.6543244e-17
v -1.41938607 7.3311023e-2 -0.24183052
v -1.28240009 7.3311023e-2 -0.44684453
v -1.07738607 7.3311023e-2 -0.58383052
v -0.83555556 7.3311023e-2 -0.63193360
v -0.59372504 7.3311023e-2 -0.58383052
v -0.38871102 7.3311023e-2 -0.44684453
v -0.25172504 7.3311023e-2 -0.24183052
v -0.15155556 -0.18844444 -8.4630159e-19
v -0.20362196 -0.18844444 0.26175547
v -0.35189452 -0.18844444 0.48366104
v -0.57380009 -0.18844444 0.63193360
v -0.83555556 -0.18844444 0.68400000
v -1.09731102 -0.18844444 0.63193360
v -1.31921659 -0.18844444 0.48366104
v -1.46748916 -0.18844444 0.26175547
v -1.51955556 -0.18844444 8.2919539e-17
v -1.46748916 -0.18844444 -0.26175547
v -1.31921659 -0.18844444 -0.48366104
v -1.09731102 -0.18844444 -0.63193360
v -0.83555556 -0.18844444 -0.68400000
v -0.57380009 -0.18844444 -0.63193360
v -0.35189452 -0.18844444 -0.48366104
v -0.20362196 -0.18844444 -0.26175547
v -0.20362196 -0.45019991 -8.4630159e-19
v -0.25172504 -0.45019991 0.24183052
v -0.38871102 -0.45019991 0.44684453
v -0.59372504 -0.45019991 0.58383052
v -0.83555556 -0.45019991 0.63193360
v -1.07738607 -0.45019991 0.58383052
v -1.28240009 -0.45019991 0.44684453
v -1.41938607 -0.45019991 0.24183052
v -1.46748916 -0.45019991 7.6543244e-17
v -1.41938607 -0.45019991 -0.24183052
v -1.28240009 -0.45019991 -0.44684453
v -1.07738607 -0.45019991 -0.58383052
v -0.83555556 -0.45019991 -0.63193360
v -0.59372504 -0.45019991 -0.58383052
v -0.38871102 -0.45019991 -0.44684453
v -0.25172504 -0.45019991 -0.24183052
v -0.35189452 -0.67210548 -8.4630159e-19
v -0.38871102 -0.67210548 0.18508907
v -0.49355556 -0.67210548 0.34200000
v -0.65046649 -0.67210548 0.44684453
v -0.83555556 -0.67210548 0.48366104
v -1.02064462 -0.67210548 0.44684453
v -1.17755556 -0.67210548 0.34200000
v -1.28240009 -0.67210548 0.18508907
v -1.31921659 -0.67210548 5.8385093e-17
v -1.28240009 -0.67210548 -0.18508907
v -1.17755556 -0.67210548 -0.34200000
v -1.02064462 -0.67210548 -0.44684453
v -0.83555556 -0.67210548 -0.48366104
v -0.65046649 -0.67210548 -0.44684453
v -0.49355556 -0.67210548 -0.34200000
v -0.38871102 -0.67210548 -0.18508907
v -0.57380009 -0.82037804 -8.4630159e-19
v -0.59372504 -0.82037804 0.10016948
v -0.65046649 -0.82037804 0.18508907
v -0.73538607 -0.82037804 0.24183052
v -0.83555556 -0.82037804 0.26175547
v -0.93572504 -0.82037804 0.24183052
v -1.02064462 -0.82037804 0.18508907
v -1.07738607 -0.82037804 0.10016948
v -1.09731102 -0.82037804 3.1209498e-17
v -1.07738607 -0.82037804 -0.10016948
v -1.02064462 -0.82037804 -0.18508907
v -0.93572504 -0.82037804 -0.24183052
v -0.83555556 -0.82037804 -0.26175547
v -0.73538607 -0.82037804 -0.24183052
v -0.65046649 -0.82037804 -0.18508907
v -0.59372504 -0.82037804 -0.10016948
v -0.83555556 0.49555556 -8.4630159e-19
v -0.83555556 -0.87244444 -8.4630159e-19
vn 0.38219484 0.92408176 -3.5494904e-18
vn 0.35310199 0.92408176 0.14625963
vn 0.27025256 0.92408176 0.27025256
vn 0.14625963 0.92408176 0.35310199
vn 7.4539299e-17 0.92408176 0.38219484
vn -0.14625963 0.92408176 0.35310199
vn -0.27025256 0.92408176 0.27025256
vn -0.35310199 0.92408176 0.14625963
vn -0.38219484 0.92408176 -1.4197962e-17
vn -0.35310199 0.92408176 -0.14625963
vn -0.27025256 0.92408176 -0.27025256
vn -0.14625963 0.92408176 -0.35310199
vn -1.3843013e-16 0.92408176 -0.38219484
vn 0.14625963 0.92408176 -0.35310199
vn 0.27025256 0.92408176 -0.27025256
vn 0.35310199 0.92408176 -0.14625963
vn 0.70658450 0.70762868 -8.5731882e-17
vn 0.65279895 0.70762868 0.27039818
vn 0.49963069 0.70762868 0.49963069
vn 0.27039818 0.70762868 0.65279895
vn 5.7154588e-17 0.70762868 0.70658450
vn -0.27039818 0.70762868 0.65279895
vn -0.49963069 0.70762868 0.49963069
vn -0.65279895 0.70762868 0.27039818
vn -0.70658450 0.70762868 2.0718538e-16
vn -0.65279895 0.70762868 -0.27039818
vn -0.49963069 0.70762868 -0.49963069
vn -0.27039818 0.70762868 -0.65279895
vn -1.0002053e-16 0.70762868 -0.70658450
vn 0.27039818 0.70762868 -0.65279895
vn 0.49963069 0.70762868 -0.49963069
vn 0.65279895 0.70762868 -0.27039818
vn 0.92368212 0.38315969 -1.4379058e-16
vn 0.85337100 0.38315969 0.35347784
vn 0.65314189 0.38315969 0.65314189
vn 0.35347784 0.38315969 0.85337100
vn 1.4379058e-17 0.38315969 0.92368212
vn -0.35347784 0.38315969 0.85337100
vn -0.65314189 0.38315969 0.65314189
vn -0.85337100 0.38315969 0.35347784
vn -0.92368212 0.38315969 6.3986806e-16
vn -0.85337100 0.38315969 -0.35347784
vn -0.65314189 0.38315969 -0.65314189
vn -0.35347784 0.38315969 -0.85337100
vn -9.3463875e-17 0.38315969 -0.92368212
vn 0.35347784 0.38315969 -0.85337100
vn 0.65314189 0.38315969 -0.65314189
vn 0.85337100 0.38315969 -0.35347784
vn 1.00000000 0.0000000e+0 -1.5137246e-16
vn 0.92387953 1.4416425e-17 0.38268343
vn 0.70710678 0.0000000e+0 0.70710678
vn 0.38268343 7.2082126e-18 0.92387953
vn 0.0000000e+0 0.0000000e+0 1.00000000
vn -0.38268343 7.2082126e-18 0.92387953
vn -0.70710678 1.4416425e-17 0.70710678
vn -0.92387953 1.4416425e-17 0.38268343
vn -1.00000000 1.4416425e-17 8.2894444e-16
vn -0.92387953 2.1624638e-17 -0.38268343
vn -0.70710678 2.1624638e-17 -0.70710678
vn -0.38268343 1.4416425e-17 -0.92387953
vn -1.5137246e-16 0.0000000e+0 -1.00000000
vn 0.38268343 0.0000000e+0 -0.92387953
vn 0.70710678 2.8832850e-17 -0.70710678
vn 0.92387953 1.4416425e-17 -0.38268343
vn 0.92368212 -0.38315969 -1.0065340e-16
vn 0.85337100 -0.38315969 0.35347784
vn 0.65314189 -0.38315969 0.65314189
vn 0.35347784 -0.38315969 0.85337100
vn 0.0000000e+0 -0.38315969 0.92368212
vn -0.35347784 -0.38315969 0.85337100
vn -0.65314189 -0.38315969 0.65314189
vn -0.85337100 -0.38315969 0.35347784
vn -0.92368212 -0.38315969 6.3267854e-16
vn -0.85337100 -0.38315969 -0.35347784
vn -0.65314189 -0.38315969 -0.65314189
vn -0.35347784 -0.38315969 -0.85337100
vn -1.0784293e-16 -0.38315969 -0.92368212
vn 0.35347784 -0.38315969 -0.85337100
vn 0.65314189 -0.38315969 -0.65314189
vn 0.85337100 -0.38315969 -0.35347784
vn 0.70658450 -0.70762868 -7.8587558e-17
vn 0.65279895 -0.70762868 0.27039818
vn 0.49963069 -0.70762868 0.49963069
vn 0.27039818 -0.70762868 0.65279895
vn 1.7860809e-17 -0.70762868 0.70658450
vn -0.27039818 -0.70762868 0.65279895
vn -0.49963069 -0.70762868 0.49963069
vn -0.65279895 -0.70762868 0.27039818
vn -0.70658450 -0.70762868 2.2147403e-16
vn -0.65279895 -0.70762868 -0.27039818
vn -0.49963069 -0.70762868 -0.49963069
vn -0.27039818 -0.70762868 -0.65279895
vn -9.2876205e-17 -0.70762868 -0.70658450
vn 0.27039818 -0.70762868 -0.65279895
vn 0.49963069 -0.70762868 -0.49963069
vn 0.65279895 -0.70762868 -0.27039818
vn 0.38219484 -0.92408176 -3.0170669e-16
vn 0.35310199 -0.92408176 0.14625963
vn 0.27025256 -0.92408176 0.27025256
vn 0.14625963 -0.92408176 0.35310199
vn 3.1945414e-17 -0.92408176 0.38219484
vn -0.14625963 -0.92408176 0.35310199
vn -0.27025256 -0.92408176 0.27025256
vn -0.35310199 -0.92408176 0.14625963
vn -0.38219484 -0.92408176 0.0000000e+0
vn -0.35310199 -0.92408176 -0.14625963
vn -0.27025256 -0.92408176 -0.27025256
vn -0.14625963 -0.92408176 -0.35310199
vn -1.0648471e-16 -0.92408176 -0.38219484
vn 0.14625963 -0.92408176 -0.35310199
vn 0.27025256 -0.92408176 -0.27025256
vn 0.35310199 -0.92408176 -0.14625963
vn 1.4160320e-17 1.00000000 7.0801599e-18
vn -5.3101199e-18 -1.00000000 -3.3188249e-17
g sphere2_default
usemtl default
s 1
f 1//1 17//17 32//32 16//16
f 1//1 113//113 2//2
f 2//2 18//18 17//17 1//1
f 2//2 113//113 3//3
f 3//3 19//19 18//18 2//2
f 3//3 113//113 4//4
f 4//4 20//20 19//19 3//3
f 4//4 113//113 5//5
f 5//5 21//21 20//20 4//4
f 5//5 113//113 6//6
f 6//6 22//22 21//21 5//5
f 6//6 113//113 7//7
f 7//7 23//23 22//22 6//6
f 7//7 113//113 8//8
f 8//8 24//24 23//23 7//7
f 8//8 113//113 9//9
f 9//9 25//25 24//24 8//8
f 9//9 113//113 10//10
f 10//10 26//26 25//25 9//9
f 10//10 113//113 11//11
f 11//11 27//27 26//26 10//10
f 11//11 113//113 12//12
f 12//12 28//28 27//27 11//11
f 12//12 113//113 13//13
f 13//13 29//29 28//28 12//12
f 13//13 113//113 14//14
f 14//14 30//30 29//29 13//13
f 14//14 113//113 15//15
f 15//15 31//31 30//30 14//14
f 15//15 113//113 16//16
f 16//16 32//32 31//31 15//15
f 16//16 113//113 1//1
f 17//17 33//33 48//48 32//32
f 18//18 34//34 33//33 17//17
f 19//19 35//35 34//34 18//18
f 20//20 36//36 35//35 19//19
f 21//21 37//37 36//36 20//20
f 22//22 38//38 37//37 21//21
f 23//23 39//39 38//38 22//22
f 24//24 40//40 39//39 23//23
f 25//25 41//41 40//40 24//24
f 26//26 42//42 41//41 25//25
f 27//27 43//43 42//42 26//26
f 28//28 44//44 43//43 27//27
f 29//29 45//45 44//44 28//28
f 30//30 46//46 45//45 29//29
f 31//31 47//47 46//46 30//30
f 32//32 48//48 47//47 31//31
f 33//33 49//49 64//64 48//48
f 34//34 50//50 49//49 33//33
f 35//35 51//51 50//50 34//34
f 36//36 52//52 51//51 35//35
f 37//37 53//53 52//52 36//36
f 38//38 54//54 53//53 37//37
f 39//39 55//55 54//54 38//38
f 40//40 56//56 55//55 39//39
f 41//41 57//57 56//56 40//40
f 42//42 58//58 57//57 41//41
f 43//43 59//59 58//58 42//42
f 44//44 60//60 59//59 43//43
f 45//45 61//61 60//60 44//44
f 46//46 62//62 61//61 45//45
f 47//47 63//63 62//62 46//46
f 48//48 64//64 63//63 47//47
f 49//49 65//65 80//80 64//64
f 50//50 66//66 65//65 49//49
f 51//51 67//67 66//66 50//50
f 52//52 68//68 67//67 51//51
f 53//53 69//69 68//68 52//52
f 54//54 70//70 69//69 53//53
f 55//55 71//71 70//70 54//54
f 56//56 72//72 71//71 55//55
f 57//57 73//73 72//72 56//56
f 58//58 74//74 73//73 57//57
f 59//59 75//75 74//74 58//58
f 60//60 76//76 75//75 59//59
f 61//61 77//77 76//76 60//60
f 62//62 78//78 77//77 61//61
f 63//63 79//79 78//78 62//62
f 64//64 80//80 79//79 63//63
f 65//65 81//81 96//96 80//80
f 66//66 82//82 81//81 65//65
f 67//67 83//83 82//82 66//66
f 68//68 84//84 83//83 67//67
f 69//69 85//85 84//84 68//68
f 70//70 86//86 85//85 69//69
f 71//71 87//87 86//86 70//70
f 72//72 88//88 87//87 71//71
f 73//73 89//89 88//88 72//72
f 74//74 90//90 89//89 73//73
f 75//75 91//91 90//90 74//74
f 76//76 92//92 91//91 75//75
f 77//77 93//93 92//92 76//76
f 78//78 94//94 93//93 77//77
f 79//79 95//95 94//94 78//78
f 80//80 96//96 95//95 79//79
f 81//81 97//97 112//112 96//96
f 82//82 98//98 97//97 81//81
f 83//83 99//99 98//98 82//82
f 84//84 100//100 99//99 83//83
f 85//85 101//101 100//100 84//84
f 86//86 102//102 101//101 85//85
f 87//87 103//103 102//102 86//86
f 88//88 104//104 103//103 87//87
f 89//89 105//105 104//104 88//88
f 90//90 106//106 105//105 89//89
f 91//91 107//107 106//106 90//90
f 92//92 108//108 107//107 91//91
f 93//93 109//109 108//108 92//92
f 94//94 110//110 109//109 93//93
f 95//95 111//111 110//110 94//94
f 96//96 112//112 111//111 95//95
f 97//97 114//114 112//112
f 98//98 114//114 97//97
f 99//99 114//114 98//98
f 100//100 114//114 99//99
f 101//101 114//114 100//100
f 102//102 114//114 101//101
f 103//103 114//114 102//102
f 104//104 114//114 103//103
f 105//105 114//114 104//104
f 106//106 114//114 105//105
f 107//107 114//114 106//106
f 108//108 114//114 107//107
f 109//109 114//114 108//108
f 110//110 114//114 109//109
f 111//111 114//114 110//110
f 112//112 114//114 111//111
o Cylinder1
#48 vertices, 34 faces
v 0.55543807 -0.38031638 -1.8179902e-18
v 0.54877290 -0.34470135 0.18215731
v 0.52979209 -0.24327832 0.33658283
v 0.50138531 -9.1488020e-2 0.43976666
v 0.46787723 8.7560843e-2 0.47600000
v 0.43436914 0.26660971 0.43976666
v 0.40596236 0.41840000 0.33658283
v 0.38698156 0.51982304 0.18215731
v 0.38031638 0.55543807 5.6475197e-17
v 0.38698156 0.51982304 -0.18215731
v 0.40596236 0.41840000 -0.33658283
v 0.43436914 0.26660971 -0.43976666
v 0.46787723 8.7560843e-2 -0.47600000
v 0.50138531 -9.1488020e-2 -0.43976666
v 0.52979209 -0.24327832 -0.33658283
v 0.54877290 -0.34470135 -0.18215731
v -0.38031638 -0.55543807 -1.8179902e-18
v -0.38698156 -0.51982304 0.18215731
v -0.40596236 -0.41840000 0.33658283
v -0.43436914 -0.26660971 0.43976666
v -0.46787723 -8.7560843e-2 0.47600000
v -0.50138531 9.1488020e-2 0.43976666
v -0.52979209 0.24327832 0.33658283
v -0.54877290 0.34470135 0.18215731
v -0.55543807 0.38031638 5.6475197e-17
v -0.54877290 0.34470135 -0.18215731
v -0.52979209 0.24327832 -0.33658283
v -0.50138531 9.1488020e-2 -0.43976666
v -0.46787723 -8.7560843e-2 -0.47600000
v -0.43436914 -0.26660971 -0.43976666
v -0.40596236 -0.41840000 -0.33658283
v -0.38698156 -0.51982304 -0.18215731
v 4.58073190 0.27116483 0.23862608
v 4.58946327 0.22450914 -1.3136039e-16
v 4.58073190 0.27116483 -0.23862608
v 4.55586704 0.40402901 -0.44092350
v 4.51865416 0.60287429 -0.57609432
v 4.47475857 0.83742830 -0.62356000
v 4.43086298 1.07198231 -0.57609432
v 4.39365010 1.27082760 -0.44092350
v 4.36878524 1.40369178 -0.23862608
v 4.36005387 1.45034747 -5.4996311e-17
v 4.36878524 1.40369178 0.23862608
v 4.39365010 1.27082760 0.44092350
v 4.43086298 1.07198231 0.57609432
v 4.47475857 0.83742830 0.62356000
v 4.51865416 0.60287429 0.57609432
v 4.55586704 0.40402901 0.44092350
vn 0.16613951 -0.98610226 -1.9104943e-16
vn 0.15213934 -0.91129300 0.38262081
vn 0.11227022 -0.69825427 0.70699107
vn 5.2601876e-2 -0.37941928 0.92372834
vn -1.7781738e-2 -3.3277619e-3 0.99983635
vn -8.8165353e-2 0.37276376 0.92372834
vn -0.14783370 0.69159875 0.70699107
vn -0.18770281 0.90463748 0.38262081
vn -0.20170299 0.97944673 -7.0759047e-18
vn -0.18770281 0.90463748 -0.38262081
vn -0.14783370 0.69159875 -0.70699107
vn -8.8165353e-2 0.37276376 -0.92372834
vn -1.7781738e-2 -3.3277619e-3 -0.99983635
vn 5.2601876e-2 -0.37941928 -0.92372834
vn 0.11227022 -0.69825427 -0.70699107
vn 0.15213934 -0.91129300 -0.38262081
vn -0.28254716 -0.95925341 -1.5127284e-16
vn -0.29502208 -0.89259425 0.34093617
vn -0.33054765 -0.70276503 0.62996790
vn -0.38371543 -0.41866553 0.82309273
vn -0.44643110 -8.3547309e-2 0.89090915
vn -0.50914677 0.25157091 0.82309273
vn -0.56231455 0.53567041 0.62996790
vn -0.59784012 0.72549963 0.34093617
vn -0.61031504 0.79215879 -1.2606070e-17
vn -0.59784012 0.72549963 -0.34093617
vn -0.56231455 0.53567041 -0.62996790
vn -0.50914677 0.25157091 -0.82309273
vn -0.44643110 -8.3547309e-2 -0.89090915
vn -0.38371543 -0.41866553 -0.82309273
vn -0.33054765 -0.70276503 -0.62996790
vn -0.29502208 -0.89259425 -0.34093617
vn 0.57452651 -0.74184356 0.34581414
vn 0.58717992 -0.80945645 -3.3265669e-16
vn 0.57452651 -0.74184356 -0.34581414
vn 0.53849265 -0.54929835 -0.63898121
vn 0.48456417 -0.26113407 -0.83486919
vn 0.42095120 7.8778875e-2 -0.90365590
vn 0.35733822 0.41869182 -0.83486919
vn 0.30340974 0.70685610 -0.63898121
vn 0.26737588 0.89940131 -0.34581414
vn 0.25472247 0.96701420 -1.4073937e-16
vn 0.26737588 0.89940131 0.34581414
vn 0.30340974 0.70685610 0.63898121
vn 0.35733822 0.41869182 0.83486919
vn 0.42095120 7.8778875e-2 0.90365590
vn 0.48456417 -0.26113407 0.83486919
vn 0.53849265 -0.54929835 0.63898121
g Cylinder1_default
usemtl default
s 1
f 115//115 131//131 146//146 130//130
f 115//115 148//148 147//147 116//116
f 116//116 132//132 131//131 115//115
f 116//116 147//147 162//162 117//117
f 117//117 133//133 132//132 116//116
f 117//117 162//162 161//161 118//118
f 118//118 134//134 133//133 117//117
f 118//118 161//161 160//160 119//119
f 119//119 135//135 134//134 118//118
f 119//119 160//160 159//159 120//120
f 120//120 136//136 135//135 119//119
f 120//120 159//159 158//158 121//121
f 121//121 137//137 136//136 120//120
f 121//121 158//158 157//157 122//122
f 122//122 138//138 137//137 121//121
f 122//122 157//157 156//156 123//123
f 123//123 139//139 138//138 122//122
f 123//123 156//156 155//155 124//124
f 124//124 140//140 139//139 123//123
f 124//124 155//155 154//154 125//125
f 125//125 141//141 140//140 124//124
f 125//125 154//154 153//153 126//126
f 126//126 142//142 141//141 125//125
f 126//126 153//153 152//152 127//127
f 127//127 143//143 142//142 126//126
f 127//127 152//152 151//151 128//128
f 128//128 144//144 143//143 127//127
f 128//128 151//151 150//150 129//129
f 129//129 145//145 144//144 128//128
f 129//129 150//150 149//149 130//130
f 130//130 146//146 145//145 129//129
f 130//130 149//149 148//148 115//115
f 132//132 133//133 134//134 135//135 136//136 137//137 138//138 139//139 140//140 141//141 142//142 143//143 144//144 145//145 146//146 131//131
f 148//148 149//149 150//150 151//151 152//152 153//153 154//154 155//155 156//156 157//157 158//158 159//159 160//160 161//161 162//162 147//147
